<svg width="33" height="33" viewBox="0 0 33 33" fill="none" xmlns="http://www.w3.org/2000/svg">
<rect x="0.5" y="0.0400391" width="32" height="32" rx="4" fill="#403A3A" fill-opacity="0.2"/>
<path d="M12.3 6.04004H20.7C23.9 6.04004 26.5 8.64004 26.5 11.84V20.24C26.5 21.7783 25.8889 23.2535 24.8012 24.3413C23.7135 25.429 22.2383 26.04 20.7 26.04H12.3C9.1 26.04 6.5 23.44 6.5 20.24V11.84C6.5 10.3018 7.11107 8.82653 8.19878 7.73882C9.28649 6.65111 10.7617 6.04004 12.3 6.04004ZM12.1 8.04004C11.1452 8.04004 10.2295 8.41932 9.55442 9.09445C8.87928 9.76959 8.5 10.6853 8.5 11.64V20.44C8.5 22.43 10.11 24.04 12.1 24.04H20.9C21.8548 24.04 22.7705 23.6608 23.4456 22.9856C24.1207 22.3105 24.5 21.3948 24.5 20.44V11.64C24.5 9.65004 22.89 8.04004 20.9 8.04004H12.1ZM21.75 9.54004C22.0815 9.54004 22.3995 9.67174 22.6339 9.90616C22.8683 10.1406 23 10.4585 23 10.79C23 11.1216 22.8683 11.4395 22.6339 11.6739C22.3995 11.9083 22.0815 12.04 21.75 12.04C21.4185 12.04 21.1005 11.9083 20.8661 11.6739C20.6317 11.4395 20.5 11.1216 20.5 10.79C20.5 10.4585 20.6317 10.1406 20.8661 9.90616C21.1005 9.67174 21.4185 9.54004 21.75 9.54004ZM16.5 11.04C17.8261 11.04 19.0979 11.5668 20.0355 12.5045C20.9732 13.4422 21.5 14.714 21.5 16.04C21.5 17.3661 20.9732 18.6379 20.0355 19.5756C19.0979 20.5133 17.8261 21.04 16.5 21.04C15.1739 21.04 13.9021 20.5133 12.9645 19.5756C12.0268 18.6379 11.5 17.3661 11.5 16.04C11.5 14.714 12.0268 13.4422 12.9645 12.5045C13.9021 11.5668 15.1739 11.04 16.5 11.04ZM16.5 13.04C15.7044 13.04 14.9413 13.3561 14.3787 13.9187C13.8161 14.4813 13.5 15.2444 13.5 16.04C13.5 16.8357 13.8161 17.5988 14.3787 18.1614C14.9413 18.724 15.7044 19.04 16.5 19.04C17.2956 19.04 18.0587 18.724 18.6213 18.1614C19.1839 17.5988 19.5 16.8357 19.5 16.04C19.5 15.2444 19.1839 14.4813 18.6213 13.9187C18.0587 13.3561 17.2956 13.04 16.5 13.04Z" fill="white"/>
</svg>
