<svg width="33" height="33" viewBox="0 0 33 33" fill="none" xmlns="http://www.w3.org/2000/svg">
<rect x="0.5" y="0.0400391" width="32" height="32" rx="4" fill="#403A3A" fill-opacity="0.2"/>
<path d="M11.4404 9.04006C11.4402 9.5705 11.2292 10.0791 10.8539 10.454C10.4787 10.8289 9.96986 11.0393 9.43943 11.0391C8.909 11.0388 8.40039 10.8278 8.02551 10.4526C7.65062 10.0773 7.44016 9.5685 7.44043 9.03806C7.4407 8.50763 7.65166 7.99903 8.02692 7.62414C8.40218 7.24926 8.911 7.0388 9.44143 7.03906C9.97186 7.03933 10.4805 7.2503 10.8554 7.62556C11.2302 8.00082 11.4407 8.50963 11.4404 9.04006ZM11.5004 12.5201H7.50043V25.0401H11.5004V12.5201ZM17.8204 12.5201H13.8404V25.0401H17.7804V18.4701C17.7804 14.8101 22.5504 14.4701 22.5504 18.4701V25.0401H26.5004V17.1101C26.5004 10.9401 19.4404 11.1701 17.7804 14.2001L17.8204 12.5201Z" fill="white"/>
</svg>
