<svg width="33" height="33" viewBox="0 0 33 33" fill="none" xmlns="http://www.w3.org/2000/svg">
<rect x="0.5" y="0.0400391" width="32" height="32" rx="4" fill="#403A3A" fill-opacity="0.2"/>
<path d="M26.96 9.54004C26.19 9.89004 25.36 10.12 24.5 10.23C25.38 9.70004 26.06 8.86004 26.38 7.85004C25.55 8.35004 24.63 8.70004 23.66 8.90004C22.87 8.04004 21.76 7.54004 20.5 7.54004C18.15 7.54004 16.23 9.46004 16.23 11.83C16.23 12.17 16.27 12.5 16.34 12.81C12.78 12.63 9.61004 10.92 7.50004 8.33004C7.13004 8.96004 6.92004 9.70004 6.92004 10.48C6.92004 11.97 7.67004 13.29 8.83004 14.04C8.12004 14.04 7.46004 13.84 6.88004 13.54V13.57C6.88004 15.65 8.36004 17.39 10.32 17.78C9.69077 17.9522 9.03013 17.9762 8.39004 17.85C8.66165 18.7025 9.19358 19.4484 9.91106 19.983C10.6285 20.5175 11.4955 20.8137 12.39 20.83C10.8737 22.0305 8.99404 22.6794 7.06004 22.67C6.72004 22.67 6.38004 22.65 6.04004 22.61C7.94004 23.83 10.2 24.54 12.62 24.54C20.5 24.54 24.83 18 24.83 12.33C24.83 12.14 24.83 11.96 24.82 11.77C25.66 11.17 26.38 10.41 26.96 9.54004Z" fill="white"/>
</svg>
