<svg width="33" height="33" viewBox="0 0 33 33" fill="none" xmlns="http://www.w3.org/2000/svg">
<rect x="0.5" y="0.0400391" width="32" height="32" rx="4" fill="#403A3A" fill-opacity="0.2"/>
<path d="M27.5 13.75C27.5495 12.3187 27.2365 10.898 26.59 9.62002C26.1514 9.09562 25.5427 8.74173 24.87 8.62002C22.0875 8.36755 19.2936 8.26407 16.5 8.31002C13.7167 8.26198 10.9327 8.36212 8.16003 8.61002C7.61185 8.70974 7.10454 8.96687 6.70003 9.35002C5.80003 10.18 5.70003 11.6 5.60003 12.8C5.45494 14.9576 5.45494 17.1225 5.60003 19.28C5.62896 19.9554 5.72952 20.6259 5.90003 21.28C6.0206 21.7851 6.26455 22.2524 6.61003 22.64C7.01729 23.0435 7.53641 23.3152 8.10003 23.42C10.2559 23.6861 12.4282 23.7964 14.6 23.75C18.1 23.8 21.17 23.75 24.8 23.47C25.3775 23.3717 25.9112 23.0996 26.33 22.69C26.61 22.4099 26.8191 22.0671 26.94 21.69C27.2977 20.5926 27.4733 19.4441 27.46 18.29C27.5 17.73 27.5 14.35 27.5 13.75ZM14.24 18.89V12.7L20.16 15.81C18.5 16.73 16.31 17.77 14.24 18.89Z" fill="white"/>
</svg>
